<?xml version="1.0" encoding="UTF-8" standalone="no"?>
<!-- Created with Vectornator for iOS (http://vectornator.io/) -->

<svg
   height="100%"
   style="fill-rule:nonzero;clip-rule:evenodd;stroke-linecap:round;stroke-linejoin:round;"
   xml:space="preserve"
   width="100%"
   version="1.1"
   viewBox="0 0 1024 1024"
   id="svg19"
   sodipodi:docname="imp-web.svg"
   inkscape:version="1.1 (c68e22c387, 2021-05-23)"
   inkscape:export-filename="F:\imp\Assets\Icons\Logo_Scripts_2048.png"
   inkscape:export-xdpi="96"
   inkscape:export-ydpi="96"
   xmlns:inkscape="http://www.inkscape.org/namespaces/inkscape"
   xmlns:sodipodi="http://sodipodi.sourceforge.net/DTD/sodipodi-0.dtd"
   xmlns="http://www.w3.org/2000/svg"
   xmlns:svg="http://www.w3.org/2000/svg"
   xmlns:vectornator="http://vectornator.io"><sodipodi:namedview
   id="namedview21"
   pagecolor="#ffffff"
   bordercolor="#666666"
   borderopacity="1.0"
   inkscape:pageshadow="2"
   inkscape:pageopacity="0.0"
   inkscape:pagecheckerboard="0"
   showgrid="false"
   inkscape:zoom="0.60214562"
   inkscape:cx="353.73503"
   inkscape:cy="512.33454"
   inkscape:window-width="1920"
   inkscape:window-height="1057"
   inkscape:window-x="-8"
   inkscape:window-y="-8"
   inkscape:window-maximized="1"
   inkscape:current-layer="Ebene 1" />
<metadata
   id="metadata2">
<vectornator:setting
   key="DimensionsVisible"
   value="1" />
<vectornator:setting
   key="PencilOnly"
   value="0" />
<vectornator:setting
   key="SnapToPoints"
   value="0" />
<vectornator:setting
   key="GuidesVisible"
   value="1" />
<vectornator:setting
   key="CMYKEnabledKey"
   value="0" />
<vectornator:setting
   key="OutlineMode"
   value="0" />
<vectornator:setting
   key="SnapToEdges"
   value="0" />
<vectornator:setting
   key="RulersVisible"
   value="1" />
<vectornator:setting
   key="DisplayWhiteBackground"
   value="0" />
<vectornator:setting
   key="doHistoryDisabled"
   value="0" />
<vectornator:setting
   key="TimeLapseWatermarkDisabled"
   value="0" />
<vectornator:setting
   key="SnapToGuides"
   value="1" />
<vectornator:setting
   key="DynamicGuides"
   value="0" />
<vectornator:setting
   key="SnapToGrid"
   value="0" />
<vectornator:setting
   key="Units"
   value="Pixels" />
<vectornator:setting
   key="IsolateActiveLayer"
   value="0" />
</metadata>
<defs
   id="defs4" />
<g
   id="Ebene 1"
   vectornator:layerName="Ebene 1">
<path
   style="color:#000000;clip-rule:nonzero;fill:#000000;stroke-linecap:square;stroke-linejoin:miter;stroke:#000000;stroke-opacity:1;stroke-width:12;stroke-miterlimit:4;stroke-dasharray:none"
   d="m 898.13867,197.86133 -22.41601,51.36914 c 0,0 -17.80731,40.7854 -42.86719,88.06055 -25.05988,47.27514 -58.97957,101.39586 -82.78516,122.71093 -48.88601,43.77118 -87.0512,57.07328 -111.88086,60.67188 -12.41482,1.7993 -21.6062,1.14199 -27.36133,0.23047 -5.75512,-0.91153 -6.45312,-1.41016 -6.45312,-1.41016 l -35.17188,-14.95703 0.63086,38.21289 c 0,0 0.38544,39.20386 -5.49609,70.17773 -1.96049,10.32306 -7.34071,21.539 -9.96484,37.02344 -1.31207,7.74222 -1.84804,17.97512 3.21289,28.4336 5.06092,10.45847 15.15651,17.93531 25.25781,21.78906 v 0.002 c 33.40205,12.74251 58.89928,47.48508 75.01758,81.22266 16.1183,33.73757 22.40039,63.57226 22.40039,63.57226 l 19.19336,91.95117 68.6582,-213.58593 53.56055,132.75781 65.95508,-255.69531 65.49023,119.40234 12.60742,-68.68164 c 0,0 6.95832,-37.8787 13.00977,-83.78125 6.05135,-45.90179 11.72941,-98.64139 7.51562,-135.87695 v -0.002 c -3.4834,-30.78013 -19.77539,-72.79524 -35.125,-111.34375 -15.34991,-38.54926 -30.00586,-71.13671 -30.00586,-71.13671 z m -0.80859,122.15625 c 2.69109,6.51911 4.83464,11.36303 7.66406,18.46875 14.88956,37.39316 30.14894,82.92298 31.91797,98.55664 v 0.002 c 2.9228,25.82527 -1.53646,79.27813 -7.40625,123.80274 -0.46858,3.55433 -0.94403,6.6138 -1.41992,10.05468 L 870.86719,466.58203 811.27539,697.60352 762.83008,577.52344 703.54492,761.95117 c -0.31077,-0.66157 -0.56357,-1.29291 -0.88086,-1.95703 -18.4436,-38.60472 -48.4203,-83.9659 -98.46484,-104.66602 1.60274,-6.02837 5.97318,-17.61018 8.92187,-33.13671 3.39445,-17.87617 4.90302,-36.09953 5.65821,-50.86914 7.74357,0.24643 16.54406,-0.0584 26.53125,-1.50586 35.22628,-5.1054 83.04892,-23.72358 137.88281,-72.82032 35.49535,-31.78187 67.49734,-87.3292 93.53516,-136.44922 7.74168,-14.60459 14.4849,-28.05858 20.60156,-40.52929 z"
   id="path6" />
<path
   style="color:#000000;clip-rule:nonzero;fill:#000000;stroke-linecap:square;stroke-linejoin:miter;stroke:#000000;stroke-opacity:1;stroke-width:12;stroke-miterlimit:4;stroke-dasharray:none"
   d="m 151.63867,198.54297 -22.77539,48.0957 c 0,0 -15.43924,32.59747 -31.61328,71.16406 -16.174038,38.5666 -33.349715,80.4488 -37.064453,111.61524 -4.472845,37.52672 1.541545,90.25619 7.919922,136.19336 6.378376,45.93717 13.710937,83.84179 13.710937,83.84179 l 10.777344,55.74024 77.23242,-105.14063 62.02539,256.46289 55.92188,-140.13281 78.76758,219.28906 16.89062,-89.75781 c 0,0 5.80314,-30.5147 21.92773,-64.91797 16.1246,-34.40326 41.86938,-69.66356 77.50782,-82.57226 10.30957,-3.73414 20.6488,-10.87729 26.05078,-21.47656 5.40198,-10.59928 4.86566,-21.23715 3.46094,-29.10743 -2.80944,-15.74054 -8.4671,-26.89054 -10.49805,-37.04492 -6.1596,-30.79624 -5.76758,-69.91992 -5.76758,-69.91992 l 0.65234,-37.49219 -34.77148,14.03906 c 0,0 -10.24256,5.00083 -36.91797,1.33008 -26.6754,-3.67074 -67.2307,-17.19992 -118.83008,-61.0664 -25.29273,-21.50188 -60.87099,-75.50582 -87.25586,-122.76563 -26.38486,-47.25981 -45.1289,-88.02344 -45.1289,-88.02344 z m 0.76367,117.04297 c 6.81012,13.25812 14.3713,27.66727 23.23243,43.53906 27.43182,49.13509 61.28501,104.79851 98.44921,136.39258 57.63951,49.00142 107.64588,67.39253 144.22266,72.42578 10.74227,1.47822 20.38252,1.62465 28.87305,1.20312 0.79013,14.86104 2.39295,33.3037 6.00976,51.38672 3.06574,15.32815 7.46843,26.60761 9.23438,32.63086 -52.42454,20.54096 -83.4426,67.1117 -102.02539,106.75977 -0.8412,1.79477 -1.53052,3.5158 -2.32422,5.29101 l -25.5332,-71.08593 -37.2129,-130.64649 -51.84179,129.9082 -50.48828,-208.75976 -72.13086,98.19531 c -1.19173,-7.73274 -2.39795,-15.54526 -3.57813,-24.04492 -6.17743,-44.48999 -10.84032,-97.95211 -7.79687,-123.48633 1.81735,-15.24752 17.87417,-60.91323 33.54883,-98.28906 3.45605,-8.24088 6.12245,-14.0067 9.36132,-21.41992 z"
   id="path8" />
<g
   id="path10"
   style="fill:#000000"><path
     style="color:#000000;clip-rule:nonzero;fill:#000000;stroke-width:53.0178;stroke-linecap:butt;-inkscape-stroke:none"
     d="m 500.622,479.763 c -333.748,-319.842 -166.874,-159.921 0,0 z"
     id="path1778"
     sodipodi:nodetypes="cc" /><path
     style="color:#000000;clip-rule:nonzero;fill:#000000;stroke-linecap:butt;stroke:#000000;stroke-opacity:1;stroke-width:12;stroke-miterlimit:4;stroke-dasharray:none"
     d="m 499.8418,453.26562 c -76.3581,2.24634 -142.79405,65.27106 -147.69336,167.44922 -1.59145,33.20022 2.20578,75.47021 21.67578,113.25196 19.46999,37.78174 58.75735,70.03779 115.17578,71.90625 57.95687,1.91882 103.13759,-19.8201 131.54297,-52.79883 28.40538,-32.97873 40.85164,-74.96125 43.6875,-114.66211 2.80383,-39.25795 -1.21588,-71.44963 -11.25195,-97.82227 -13.92371,-36.58642 -40.33369,-60.68108 -68.75391,-73.19531 -28.41953,-12.51392 -58.30836,-14.89563 -84.38086,-14.12891 z"
     id="path1780"
     sodipodi:nodetypes="scscsccsss" /></g>
<g
   id="path12"
   style="fill:#000000"><path
     style="color:#000000;clip-rule:nonzero;fill:#000000;stroke-width:83.8938;stroke-linecap:square;stroke-linejoin:miter;-inkscape-stroke:none"
     d="m 327.427,293.294 c 3.161,35.397 19.595,54.992 19.595,54.992 0,0 14.103,28.412 -1.264,58.786 -53.728,106.192 24.007,157.115 151.704,160.553 164.345,4.424 184.573,-90.39 175.723,-127.684 -4.458,-18.789 -18.786,-41.701 -12.642,-68.267 6.052,-26.165 30.64,-47.807 31.605,-61.314 1.896,-26.548 -8.217,-82.172 -8.217,-82.172 0,0 -91.671,88.493 -177.62,85.965 C 398.854,310.993 334.38,206.696 334.38,206.696 c 0,0 -10.113,51.2 -6.953,86.598 z"
     id="path1010" /><path
     style="color:#000000;clip-rule:nonzero;fill:#000000;stroke:#000000;stroke-linecap:square;stroke-linejoin:miter;stroke-opacity:1;stroke-width:12;stroke-miterlimit:4;stroke-dasharray:none"
     d="M 313.91797,93.820312 293.22852,198.56836 c 0,0 -11.76533,51.59426 -7.58204,98.45508 v 0.002 c 3.00071,33.60206 16.62912,58.98965 24.15821,70.80273 0.8785,2.08788 3.66757,10.13889 -1.47657,20.30665 -15.88119,31.38877 -23.88952,62.10987 -21.27734,91.99218 2.61218,29.88231 17.2149,57.35163 38.0957,76.59766 41.76162,38.49205 101.99818,50.96924 171.1875,52.83203 90.27661,2.43015 151.10284,-23.44218 185.41797,-62.40625 34.31451,-38.96336 40.17203,-83.4901 32.2461,-116.89258 v -0.002 c -7.35016,-30.97761 -14.31098,-41.67197 -12.58594,-49.13086 0.78861,-3.40599 4.99926,-11.62943 11.57031,-21.33008 6.57219,-9.70232 18.83219,-16.02069 21.00586,-46.44531 v -0.002 c 1.47379,-20.63616 -1.22229,-41.26321 -3.65625,-59.56055 -2.43396,-18.29735 -5.13086,-33.10156 -5.13086,-33.10156 l -14.01758,-77.10743 -56.38672,54.42969 c 0,0 -20.16403,19.41404 -50.25195,38.90625 -30.08791,19.49222 -68.8411,36.13878 -97,35.31055 -80.84262,-2.37735 -137.48437,-87.58594 -137.48437,-87.58594 z"
     id="path1012"
     sodipodi:nodetypes="ccccccsscscccsssscccsccc" /></g>


<path
   d="m 377.731,437.674 c 0,0 27.231,-79.776 114.691,-79.776 87.46,0 121.472,74.867 121.472,74.867 0,0 -53.447,90.822 -125.116,87.14 -71.668,-3.682 -111.047,-82.231 -111.047,-82.231 z"
   opacity="1"
   fill="#ff0000"
   id="path14"
   style="clip-rule:evenodd;fill:#ffff00;fill-rule:nonzero;stroke-linecap:round;stroke-linejoin:round" /><path
   d="m 494.933,361.56 c 0,0 -36.661,36.662 -35.397,68.899 1.264,32.237 31.605,82.173 31.605,82.173 0,0 34.133,-37.294 32.869,-72.691 -1.264,-35.398 -29.077,-78.381 -29.077,-78.381 z"
   opacity="1"
   fill="#000000"
   id="path16"
   style="clip-rule:evenodd;fill-rule:nonzero;stroke-linecap:round;stroke-linejoin:round" /><ellipse
   style="clip-rule:evenodd;fill:#ffffff;fill-opacity:1;fill-rule:evenodd;stroke:none;stroke-width:8;stroke-linecap:round;stroke-linejoin:round;stroke-miterlimit:4;stroke-dasharray:none;stroke-opacity:1"
   id="path279"
   cx="528.94189"
   cy="416.84268"
   rx="32.384193"
   ry="33.21455" /></g>
</svg>
